<svg xmlns="http://www.w3.org/2000/svg" viewBox="0 0 64 64"><defs><style>.cls-1{fill:#f0efe3;}.cls-2{fill:#bdab9d;}.cls-3{opacity:0.15;}.cls-4{fill:#5f4e56;}.cls-5{isolation:isolate;}</style></defs><title>user</title><g id="User"><g id="Cream"><path class="cls-1" d="M48.78,46c-7.92-.88-11.16-4.29-13.52-6.77l0,0C40.6,36.59,46,28.17,46,18.9,46,8.95,40.24,2,32,2S18,8.95,18,18.9c0,9.27,5.4,17.69,10.77,20.28l0,0C26.38,41.7,23.15,45.11,15.22,46c-5.87.65-7,8.36-7.17,11.08C10,58.39,16.72,62,32,62s22-3.6,24-4.94C55.75,54.34,54.65,46.64,48.78,46Z"/></g><g id="Brown"><path class="cls-2" d="M55.8,51.39C52.35,53.31,45.17,56,32,56S11.65,53.33,8.18,51.42A22.73,22.73,0,0,0,7,57.55C8.45,58.66,15.17,63,32,63c10,0,16.4-1.56,20-2.86a18.88,18.88,0,0,0,5-2.59A22.79,22.79,0,0,0,55.8,51.39Z"/></g><g id="Details" class="cls-3"><path class="cls-4" d="M42,50a1,1,0,0,0-1-1H33a1,1,0,0,0,0,2h8A1,1,0,0,0,42,50ZM27,56H24a1,1,0,0,0,0,2h3a1,1,0,0,0,0-2ZM41,29H36a1,1,0,1,0,0,2h5a1,1,0,0,0,0-2ZM35,8h4a1,1,0,0,0,0-2H35a1,1,0,0,0,0,2Zm-9,6h6a1,1,0,0,0,0-2H26a1,1,0,0,0,0,2Zm12,5a1,1,0,0,0,1,1h2a1,1,0,0,0,0-2H39A1,1,0,0,0,38,19ZM28,45H21a1,1,0,0,0,0,2h7a1,1,0,0,0,0-2ZM50,58H42a1,1,0,0,0,0,2h8a1,1,0,0,0,0-2ZM29,25a1,1,0,1,0,1,1A1,1,0,0,0,29,25Z"/></g><g id="Outline"><path class="cls-4" d="M49,44c-5.5-.61-8.47-2.53-10.56-4.43,5.31-4,9.56-12.3,9.56-20.67C48,7.3,40.84,0,32,0S16,7.3,16,18.9c0,8.37,4.25,16.68,9.56,20.67C23.47,41.47,20.5,43.39,15,44,6,45,6,58,6,58s6,6,26,6,26-6,26-6S58,45,49,44ZM24.34,32.51A24.35,24.35,0,0,1,20,18.9C20,10.13,24.93,4,32,4s12,6.13,12,14.9a24.35,24.35,0,0,1-4.34,13.61C37.29,35.9,34.36,38,32,38S26.71,35.9,24.34,32.51ZM15.44,48c7.63-.85,11.38-4,13.82-6.43a8.44,8.44,0,0,0,5.47,0C37.18,44,40.92,47.13,48.56,48c.7.08,2.37.27,3.74,2.82C48.47,52.36,42.06,54,32,54s-16.46-1.64-20.29-3.19A4.93,4.93,0,0,1,15.44,48ZM32,60c-12.78,0-19.24-2.57-21.84-4a18.58,18.58,0,0,1,.73-3.31C14.94,54.34,21.6,56,32,56S49,54.33,53.09,52.68A18.65,18.65,0,0,1,53.84,56C51.24,57.43,44.77,60,32,60Z"/></g></g></svg>